<svg width="40" height="31" viewBox="0 0 40 31" fill="none" xmlns="http://www.w3.org/2000/svg">
<path d="M33.253 16.0112C33.7815 16.819 34.6056 17.3874 35.5485 17.5943C36.4913 17.8011 37.4777 17.63 38.2958 17.1176C39.101 16.5892 39.6676 15.7666 39.8743 14.8258C40.081 13.885 39.9116 12.9007 39.4021 12.0832C38.8736 11.2754 38.0494 10.707 37.1066 10.5002C36.1637 10.2933 35.1774 10.4644 34.3593 10.9768C33.5541 11.5053 32.9875 12.3278 32.7808 13.2686C32.5741 14.2094 32.7435 15.1937 33.253 16.0112Z" fill="#23B3E8"/>
<path d="M0.604522 18.2921C1.17528 19.1659 2.0654 19.7815 3.08435 20.0073C4.10329 20.2331 5.17015 20.0512 6.05662 19.5003C6.93312 18.9294 7.55069 18.0375 7.77662 17.0161C8.00255 15.9948 7.81879 14.9256 7.26485 14.0383C6.69239 13.1634 5.79973 12.5479 4.77851 12.3238C3.75728 12.0998 2.68891 12.2851 1.80279 12.84C0.930668 13.4123 0.317039 14.3031 0.0931199 15.322C-0.130799 16.3408 0.052749 17.4068 0.604522 18.2921Z" fill="#F15832"/>
<path d="M33.0609 4.64308L24.5979 22.8936C24.455 23.1883 24.2593 23.4541 24.0206 23.6778C23.7786 23.9031 23.4951 24.0787 23.1859 24.1947C22.8753 24.3041 22.5467 24.3525 22.2179 24.3373C21.8886 24.3271 21.565 24.2482 21.2677 24.1056L20.8237 23.9006C20.5255 23.7604 20.2572 23.5637 20.0333 23.3214C19.8115 23.0782 19.6395 22.7935 19.5272 22.4837C19.4154 22.1726 19.3641 21.8428 19.3762 21.5124C19.3949 21.1831 19.4731 20.86 19.6071 20.5588L28.2388 1.96075C28.3554 1.70685 28.5208 1.47856 28.7256 1.28904C28.9304 1.09952 29.1705 0.952498 29.4321 0.85643C29.6937 0.760361 29.9717 0.717141 30.25 0.729257C30.5283 0.741373 30.8015 0.808587 31.0539 0.927029L31.8531 1.30131C32.1519 1.44017 32.4204 1.637 32.6431 1.88046C32.8657 2.12392 33.0381 2.4092 33.1504 2.71985C33.2627 3.03049 33.3126 3.36036 33.2972 3.69044C33.2818 4.02053 33.2015 4.34429 33.0609 4.64308Z" fill="#4DBD98"/>
<path d="M22.7615 5.7458L12.1747 29.6108C12.0486 29.8942 11.8714 30.1494 11.6529 30.3621C11.4306 30.5777 11.1705 30.7458 10.8871 30.857C10.6036 30.9619 10.3038 31.0099 10.0034 30.9985C9.71252 30.9786 9.42743 30.9037 9.16184 30.7775L8.58116 30.4946C8.31087 30.359 8.06802 30.17 7.86585 29.9378C7.66216 29.7066 7.50439 29.4352 7.4018 29.1392C7.2992 28.8433 7.25382 28.5288 7.26832 28.2142C7.28159 27.9078 7.35312 27.6073 7.47872 27.3303L18.2087 3.09414C18.3127 2.85541 18.4609 2.64081 18.6447 2.46281C18.8284 2.28481 19.044 2.14697 19.279 2.05731C19.5139 1.96766 19.7635 1.92798 20.0132 1.94057C20.2629 1.95317 20.5077 2.0178 20.7334 2.1307L21.6843 2.59032C22.2342 2.85911 22.66 3.3461 22.8683 3.94436C23.0766 4.54262 23.0503 5.20324 22.7952 5.78115L22.7615 5.7458Z" fill="#F3E503"/>
</svg>
