<svg width="74" height="21" viewBox="0 0 74 21" fill="none" xmlns="http://www.w3.org/2000/svg">
<rect width="74" height="21" rx="5" fill="#4DBD98"/>
<rect width="74" height="21" rx="5" fill="#4DBD98"/>
<rect width="74" height="21" rx="5" fill="#4DBD98"/>
<rect width="74" height="21" rx="5" fill="#4DBD98"/>
<path d="M14.5 15.9167C14.5 15.9167 18.8333 13.75 18.8333 10.5V6.70834L14.5 5.08334L10.1667 6.70834V10.5C10.1667 13.75 14.5 15.9167 14.5 15.9167Z" stroke="#FCFCFC" stroke-width="1.5" stroke-linecap="round" stroke-linejoin="round"/>
<path d="M32.98 14.09C32.2733 14.09 31.6567 13.9433 31.13 13.65C30.61 13.35 30.2067 12.9233 29.92 12.37C29.64 11.8167 29.5 11.17 29.5 10.43C29.5 9.69 29.64 9.04667 29.92 8.5C30.2067 7.95333 30.61 7.53333 31.13 7.24C31.6567 6.94 32.2733 6.79 32.98 6.79C33.6867 6.79 34.3 6.94 34.82 7.24C35.34 7.53333 35.74 7.95333 36.02 8.5C36.3 9.04667 36.44 9.69 36.44 10.43C36.44 11.17 36.3 11.8167 36.02 12.37C35.74 12.9233 35.34 13.35 34.82 13.65C34.3 13.9433 33.6867 14.09 32.98 14.09ZM32.98 12.87C33.58 12.87 34.0467 12.66 34.38 12.24C34.72 11.82 34.89 11.2167 34.89 10.43C34.89 9.64333 34.72 9.04333 34.38 8.63C34.0467 8.21667 33.58 8.01 32.98 8.01C32.38 8.01 31.91 8.21667 31.57 8.63C31.2367 9.04333 31.07 9.64333 31.07 10.43C31.07 11.2233 31.2367 11.83 31.57 12.25C31.91 12.6633 32.38 12.87 32.98 12.87ZM47.8239 6.88L45.2939 14H44.0439L42.3839 9.29L40.7139 14H39.4639L36.9339 6.88H38.5239L40.1639 11.8L41.8839 6.88H42.9739L44.6539 11.87L46.3339 6.88H47.8239ZM54.8937 6.88V14H53.7337L50.1837 9.46V14H48.7237V6.88H49.8737L53.4237 11.41V6.88H54.8937ZM56.3213 6.88H61.2313V8.09H57.8413V9.77H61.0213V10.99H57.8413V12.79H61.2313V14H56.3213V6.88ZM68.3177 14H66.6677L65.7577 11.63C65.6843 11.4433 65.571 11.3133 65.4177 11.24C65.271 11.1667 65.0843 11.13 64.8577 11.13H63.8477V14H62.3077V6.88H65.4777C66.3043 6.88 66.931 7.06 67.3577 7.42C67.7843 7.78 67.9977 8.29667 67.9977 8.97C67.9977 9.44333 67.871 9.85 67.6177 10.19C67.371 10.53 67.0143 10.7733 66.5477 10.92C66.9677 11.0067 67.271 11.2967 67.4577 11.79L68.3177 14ZM65.2477 9.94C65.6943 9.94 66.021 9.86667 66.2277 9.72C66.4343 9.56667 66.5377 9.33 66.5377 9.01C66.5377 8.69 66.4343 8.45667 66.2277 8.31C66.021 8.15667 65.6943 8.08 65.2477 8.08H63.8277V9.94H65.2477Z" fill="#FCFCFC"/>
<line opacity="0.15" x1="26.5" y1="6" x2="26.5" y2="16" stroke="#FCFCFC"/>
</svg>
