<svg width="19" height="15" viewBox="0 0 19 15" fill="none" xmlns="http://www.w3.org/2000/svg">
<path d="M13.0964 13.9111V12.5037C13.0964 11.7572 12.7999 11.0412 12.272 10.5133C11.7441 9.98545 11.0281 9.68889 10.2816 9.68889H4.65197C3.90544 9.68889 3.18948 9.98545 2.6616 10.5133C2.13372 11.0412 1.83716 11.7572 1.83716 12.5037V13.9111M17.3186 13.9111V12.5037C17.3182 11.88 17.1106 11.2742 16.7285 10.7813C16.3464 10.2883 15.8114 9.93629 15.2075 9.78037M12.3927 1.33593C12.9982 1.49095 13.5349 1.84309 13.9181 2.33681C14.3013 2.83054 14.5093 3.43777 14.5093 4.06278C14.5093 4.68779 14.3013 5.29502 13.9181 5.78874C13.5349 6.28247 12.9982 6.6346 12.3927 6.78963M10.2816 4.05926C10.2816 5.61384 9.02137 6.87408 7.46679 6.87408C5.91221 6.87408 4.65197 5.61384 4.65197 4.05926C4.65197 2.50468 5.91221 1.24445 7.46679 1.24445C9.02137 1.24445 10.2816 2.50468 10.2816 4.05926Z" stroke="#FCFCFC" stroke-width="2" stroke-linecap="round" stroke-linejoin="round"/>
</svg>
