<svg width="16" height="13" viewBox="0 0 16 13" fill="none" xmlns="http://www.w3.org/2000/svg">
<path d="M13.8664 3.03714V1.65207L4.53286 1.65174V3.03681L13.8664 3.03714ZM13.8665 8.57707L13.8663 5.11494L4.53277 5.1146L4.53302 8.57673L13.8665 8.57707ZM13.8664 0.267002C14.6031 0.267002 15.1998 0.886102 15.1998 1.65207L15.1999 8.57707C15.1999 9.34309 14.6033 9.96214 13.8665 9.96214L4.53302 9.9618C3.79631 9.9618 3.19963 9.34274 3.19963 8.57673L3.20614 1.65174C3.20614 0.885762 3.79614 0.266663 4.53286 0.266663L13.8664 0.267002ZM1.86665 11.3483H11.8671V12.7333L1.86681 12.733C1.1301 12.733 0.533424 12.1139 0.533424 11.3479L0.533264 3.73036H1.86665V11.3483Z" fill="white"/>
</svg>
