<svg width="25" height="31" viewBox="0 0 25 31" fill="none" xmlns="http://www.w3.org/2000/svg">
<ellipse cx="12.5345" cy="11.0095" rx="8.46888" ry="8.63826" fill="white"/>
<path d="M14.5193 12.7697H10.7415L9.96984 14.5665H8.16156L11.8933 6.44651H13.333L17.0647 14.5665H15.291L14.5193 12.7697ZM13.9319 11.4106L12.6304 8.36996L11.3289 11.4106H13.9319Z" fill="#00B394"/>
<path d="M22.7086 9.30867C22.5054 8.19077 23.1151 6.80188 22.5731 5.78561C22.0311 4.80322 20.5406 4.53222 19.6937 3.71921C18.8468 2.90619 18.5081 1.41567 17.4918 0.941415C16.4755 0.433282 15.0866 1.11079 13.9687 0.97529C12.8508 0.839788 11.6652 -0.176478 10.5812 0.0267756C9.46329 0.230029 8.75191 1.58505 7.73564 2.12706C6.75325 2.66907 5.22885 2.53356 4.41584 3.34658C3.60283 4.19346 3.83996 5.71786 3.33183 6.70025C2.82369 7.71652 1.53642 8.52953 1.36705 9.64742C1.23154 10.7653 2.28168 11.8832 2.48494 13.0011C2.68819 14.119 2.07843 15.5079 2.62044 16.5242C3.16245 17.5065 4.65297 17.7775 5.49986 18.5906C6.34675 19.4036 6.6855 20.8941 7.70177 21.3684C8.71803 21.8765 10.1069 21.199 11.2248 21.3345C12.3427 21.47 13.5284 22.4862 14.6124 22.283C15.7303 22.0797 16.4417 20.7247 17.4579 20.1827C18.4403 19.6407 19.9647 19.7762 20.7777 18.9632C21.5907 18.1163 21.3536 16.5919 21.8279 15.6095C22.336 14.5933 23.6233 13.7802 23.7926 12.6623C23.962 11.5445 22.9119 10.4266 22.7086 9.30867ZM12.6137 18.5567C8.54866 18.5567 5.22886 15.2369 5.22886 11.1718C5.22886 7.10676 8.54866 3.78696 12.6137 3.78696C16.6788 3.78696 19.9986 7.10676 19.9986 11.1718C19.9647 15.2708 16.6788 18.5567 12.6137 18.5567Z" fill="#00B394"/>
<path d="M19.0379 20.928C18.6314 21.0296 18.2249 21.0973 17.9878 21.2328C17.7168 21.3683 17.4458 21.6732 17.107 21.9781C16.5311 22.554 15.7859 23.2654 14.7696 23.4686C14.6002 23.5025 14.4308 23.5025 14.2276 23.5025C13.9566 23.5025 13.6856 23.4686 13.4146 23.4009L16.9376 30.176L19.7832 25.8399L25 26.0093L21.7141 19.6407C21.6802 19.6746 21.6802 19.7084 21.6463 19.7084C20.9011 20.5215 19.8848 20.7247 19.0379 20.928Z" fill="#00B394"/>
<path d="M10.8063 22.4863C10.5353 22.4863 10.2304 22.5202 9.89165 22.5879C9.45127 22.6557 9.01089 22.7234 8.57051 22.7234C7.99462 22.7234 7.52036 22.6218 7.07998 22.4185C6.13147 21.9782 5.65721 21.1313 5.21683 20.386C4.9797 20.0134 4.77645 19.6408 4.53932 19.4036C4.33607 19.2342 4.03119 19.0649 3.69243 18.8616L0 25.9755L5.18295 25.7722L8.06237 30.176L11.8903 22.7912C11.5516 22.6557 11.2467 22.5202 11.0095 22.4863C10.9418 22.4863 10.874 22.4863 10.8063 22.4863Z" fill="#00B394"/>
</svg>
